<svg xmlns="http://www.w3.org/2000/svg" xmlns:xlink="http://www.w3.org/1999/xlink" width="190" height="80" viewBox="0 0 190 80">
  <defs>
    <clipPath id="clip-Continue">
      <rect width="190" height="80"/>
    </clipPath>
  </defs>
  <g id="Continue" clip-path="url(#clip-Continue)">
    <rect width="190" height="80" fill="#fff"/>
    <g id="Group_199" data-name="Group 199" transform="translate(15605 22256)">
      <g id="Rectangle_78" data-name="Rectangle 78" transform="translate(-15605 -22256)" fill="rgba(0,0,0,0.8)" stroke="#f9d115" stroke-width="2">
        <rect width="190" height="80" rx="10" stroke="none"/>
        <rect x="1" y="1" width="188" height="78" rx="9" fill="none"/>
      </g>
      <text id="Next" transform="translate(-15526 -22203)" fill="#f9d115" font-size="34" font-family="HelveticaNeue-Bold, Helvetica Neue" font-weight="700"><tspan x="0" y="0">Next</tspan></text>
      <path id="Icon_awesome-arrow-circle-up" data-name="Icon awesome-arrow-circle-up" d="M.563,20.563a20,20,0,1,1,20,20A20,20,0,0,1,.563,20.563Zm11.581,2.331L17.982,16.8V31.53a1.931,1.931,0,0,0,1.935,1.935h1.29a1.931,1.931,0,0,0,1.935-1.935V16.8l5.839,6.089a1.938,1.938,0,0,0,2.766.032l.879-.887a1.927,1.927,0,0,0,0-2.734L21.933,8.6a1.928,1.928,0,0,0-2.734,0L8.49,19.3a1.928,1.928,0,0,0,0,2.734l.879.887A1.947,1.947,0,0,0,12.143,22.893Z" transform="translate(-15585.563 -22234.5)" fill="#f9d115"/>
    </g>
  </g>
</svg>
