<svg xmlns="http://www.w3.org/2000/svg" xmlns:xlink="http://www.w3.org/1999/xlink" width="190" height="80" viewBox="0 0 190 80">
  <defs>
    <clipPath id="clip-Start">
      <rect width="190" height="80"/>
    </clipPath>
  </defs>
  <g id="Start" clip-path="url(#clip-Start)">
    <rect width="190" height="80" fill="#fff"/>
    <g id="Group_199" data-name="Group 199" transform="translate(15605 22256)">
      <g id="Rectangle_78" data-name="Rectangle 78" transform="translate(-15605 -22256)" fill="rgba(255,209,0,0.9)" stroke="#000" stroke-width="2">
        <rect width="190" height="80" rx="10" stroke="none"/>
        <rect x="1" y="1" width="188" height="78" rx="9" fill="none"/>
      </g>
      <text id="Start-2" data-name="Start" transform="translate(-15526 -22203)" font-size="34" font-family="HelveticaNeue-Bold, Helvetica Neue" font-weight="700"><tspan x="0" y="0">Start</tspan></text>
    </g>
    <g id="Group_200" data-name="Group 200" transform="translate(10636 17369)">
      <ellipse id="Ellipse_41" data-name="Ellipse 41" cx="20" cy="20.5" rx="20" ry="20.5" transform="translate(-10616 -17349)"/>
      <path id="Icon_awesome-play" data-name="Icon awesome-play" d="M18.947,9.226,3.232.284A2.134,2.134,0,0,0,0,2.059V19.938a2.143,2.143,0,0,0,3.232,1.775l15.715-8.937a2.022,2.022,0,0,0,0-3.549Z" transform="translate(-10604.544 -17339.121)" fill="#f9d115"/>
    </g>
  </g>
</svg>
